<svg height="512" viewBox="0 0 59 59" width="512" xmlns="http://www.w3.org/2000/svg"><g id="014---Balalaika" transform="translate(0 -1)"><path id="Shape" d="m58.71 10c-5.36-5.33-3.38-3.35-8.71-8.71-.2557666-.26734197-.6382427-.37161853-.9943058-.27108307s-.62752.38945191-.7056942.75108307l-.12.54-.88-.88c-.1877666-.18931265-.4433625-.29579832-.71-.29579832s-.5222334.10648567-.71.29579832c-.3877236.39003745-.3877236 1.01996255 0 1.41l1.77 1.77-.27 1.13-.79-.74c-.3900375-.38772359-1.0199625-.38772359-1.41 0-.1893127.1877666-.2957983.44336246-.2957983.71s.1064856.5222334.2957983.71l1.67 1.58-.26 1.14c2.59 2.6 1.64 1.64 4.23 4.23l1.18-.22 1.67 1.67c.1877666.1893127.4433625.2957983.71.2957983s.5222334-.1064856.71-.2957983c.3877236-.3900375.3877236-1.0199625 0-1.41l-.79-.79 1.13-.27 1.77 1.77c.3900375.3877236 1.0199625.3877236 1.41 0 .1893127-.1877666.2957983-.4433625.2957983-.71s-.1064856-.5222334-.2957983-.71l-.88-.88.54-.12c.3550236-.0890823.6330097-.3650128.7247245-.7193654.0917148-.3543527-.0174984-.7304994-.2847245-.9806346z"/><path id="Shape" d="m36.43 19.35-1.43 1.4 4.25 4.25 1.4-1.41z"/><path id="Shape" d="m43.48 12.29 4.23 4.23 2.11-2.11-4.23-4.23z"/><path id="Shape" d="m33.61 22.16-1.41 1.41 4.23 4.23 1.41-1.41z"/><path id="Shape" d="m18.11 37.66 5.63-5.66c-1.5543046-.2134199-3.118659.3150795-4.2250788 1.4273951-1.1064199 1.1123155-1.6265983 2.6794565-1.4049212 4.2326049z"/><path id="Shape" d="m25.79 32.81-6.91 6.9c.3811905.5511289.8588711 1.0288095 1.41 1.41l6.9-6.91c-.3686825-.5553204-.8446796-1.0313175-1.4-1.4z"/><path id="Shape" d="m30.79 25-28.41 5.9c-1.05342312.2400889-1.89637354 1.0280792-2.20683467 2.0629496-.31046114 1.0348704-.04046964 2.1567433.70683467 2.9370504l23.18 23.22c.7803071.7473043 1.90218 1.0172958 2.9370504.7068347 1.0348704-.3104612 1.8228607-1.1534116 2.0629496-2.2068347l5.94-28.41zm-22.18 9.27c-3.92.89-3.71.87-3.89.87-.55228475.0635127-1.05148725-.3327153-1.115-.885s.33271525-1.0514873.885-1.115l3.67-.85c.55228474-.124264 1.10073589.2227153 1.22499996.775.12426406.5522847-.22271523 1.1007359-.77499996 1.225zm2-1.49c-.0598468-.2585983-.0144271-.5303806.1262522-.7554674.1406792-.2250868.3650749-.3850091.6237478-.4445326l2.29-.53c.348334-.0803848.7130926.0311706.9568748.2926443s.3295517.6331416.225.975c-.1045518.3418584-.3835408.6019709-.7318748.6823557-2.53.57-2.38.56-2.51.56-.4692043.0021104-.8767787-.3222855-.98-.78zm8.2 15.46c-.3900375.3877236-1.0199625.3877236-1.41 0l-5.64-5.64c-.3877236-.3900375-.3877236-1.0199625 0-1.41.1877666-.1893127.4433625-.2957983.71-.2957983s.5222334.1064856.71.2957983l5.63 5.63c.1893127.1877666.2957983.4433625.2957983.71s-.1064856.5222334-.2957983.71zm11.28-14.1-.48.48c.8809337 2.5348093.2352101 5.3501337-1.6623281 7.2476719s-4.7128626 2.5432618-7.2476719 1.6623281c-.56.56-.7.77-1.18.77-.4018897-.0016616-.7637369-.2437563-.918621-.6146054-.154884-.3708491-.0727076-.7983888.208621-1.0853946.12-.12.07.08-.71-.7s-.58-.8-.7-.71c-.3990784.3146698-.9707077.2799656-1.3287875-.0806719-.3580799-.3606376-.3887147-.9324994-.0712125-1.3293281l.48-.48c-.8809337-2.5348093-.2352101-5.3501337 1.6623281-7.2476719s4.7128626-2.5432618 7.2476719-1.6623281l.48-.48c.2625902-.2429406.6348408-.3273368.9765287-.2213973.3416878.1059395.6009024.3861199.68.735s-.0339385.7134567-.2965287.9563973c.5317248.396727 1.003273.8682752 1.4 1.4.2353431-.2902307.6128613-.4250424.9788102-.3495329.3659489.0755094.6592718.3487417.7605128.7084228.101241.3596812-.0064913.7458002-.279323 1.0011101z"/><path id="Shape" d="m22.34 41.89c1.5531484.2216771 3.1202894-.2985013 4.2326049-1.4049212 1.1123156-1.1064198 1.640815-2.6707742 1.4273951-4.2250788z"/><path id="Shape" d="m39.25 16.53-1.41 1.4 4.23 4.23 1.4-1.41c-4.85-4.85-4.17-4.12-4.22-4.22z"/><path id="Shape" d="m42.06 13.71-1.4 1.4c.1.05-.65-.64 4.23 4.23l1.4-1.4c-4.85-4.86-4.18-4.13-4.23-4.23z"/><path id="Shape" d="m28.54 12.86-4.05-10.23c-.123357-.31449344-.3971591-.54544586-.7279463-.6140237-.3307872-.06857783-.6738375.03449056-.9120537.2740237-5 4.94-7.89 5.26-7.91 5.26-.3210205.01876395-.6134315.1907603-.7858172.46221827-.1723857.27145796-.203711.60925324-.0841828.90778173l3 7.6c-1.4758899.0857349-2.6693084 1.2338929-2.8120131 2.7053673-.1427048 1.4714743.8078505 2.8275566 2.2397624 3.1952925 1.4319119.3677358 2.9182673-.3625123 3.5022507-1.7206598.3055597-.736221.3055597-1.563779 0-2.3l-3.65-9.15c2.5635585-1.0111606 4.8892929-2.54348926 6.83-4.5l2.47 6.25c-1.3078131.046305-2.434716.9349916-2.7846197 2.195978-.3499036 1.2609864.1579357 2.6032879 1.2548901 3.3168776s2.5298912.6337999 3.5408407-.1971635 1.3666256-2.2213478.8788889-3.4356921zm-10.94 5.73c.4127341.1816745.6528114.6171142.5861383 1.0631072s-.4235992.7921845-.8714198.8452116c-.4478205.0530271-.8757283-.200231-1.0447185-.6183188-.1524822-.3772464-.0611802-.8092677.2308984-1.0925621.2920787-.2832943.7266859-.3613653 1.0991016-.1974379zm8.52-3.7c-.5131289.2036133-1.0941848-.0471011-1.298106-.5601078-.2039212-.5130066.0464445-1.0942129.5593288-1.2984418.5128842-.204229 1.0942406.045788 1.2987772.5585496.0983792.246631.0946309.5222628-.0104184.7661274-.1050494.2438647-.3027739.4359375-.5495816.5338726z"/></g></svg>